mtllib cliff_core.mtl
o ClosedCliffCore
v -100 -72.0 0
v -83.0 -98.0 0
v -35.0 -100 0
v 35.0 -98.0 0
v 83.0 -94.0 0
v 100 -72.0 0
v 100 -25.0 0
v 96.0 30.0 0
v 99.0 75.0 0
v 73.0 99.0 0
v 25.0 100 0
v -35.0 96.0 0
v -80.0 97.0 0
v -99.0 72.0 0
v -98.0 20.0 0
v -100 -30.0 0
v -94.85944583955032 -68.29880100447623 -30.0
v -79.5541150296195 -93.93136473376758 -30.0
v -38.75157259840026 -110.71877885257217 -30.0
v 36.360698519545195 -101.80995585472655 -30.0
v 81.29527128748745 -92.06934338582916 -30.0
v 99.19470490717089 -71.42018753316304 -30.0
v 103.95086681229068 -25.98771670307267 -30.0
v 95.05864425539889 29.705826329812155 -30.0
v 106.68487739559727 80.8218768148464 -30.0
v 68.85459497590827 93.3781493508893 -30.0
v 24.96026463096875 99.841058523875 -30.0
v -34.24303425781748 93.92375110715652 -30.0
v -87.03288760643244 105.52737622279935 -30.0
v -109.54674136004857 79.67035735276258 -30.0
v -101.21415168131823 20.655949322718005 -30.0
v -111.93976985365593 -33.581930956096784 -30.0
v -81.47307844831076 -58.660616482783745 -100.0
v -77.66880251489296 -91.70533308987362 -100.0
v -29.78255258342853 -85.09300738122437 -100.0
v 29.34152148686566 -82.15626016322385 -100.0
v 75.71136345816011 -85.74539957912108 -100.0
v 81.71100195526654 -58.83192140779191 -100.0
v 80.64914528469521 -20.162286321173802 -100.0
v 82.2350742763942 25.69846071137319 -100.0
v 91.08194874188963 69.00147631961335 -100.0
v 68.01234557397743 92.23592070991458 -100.0
v 24.086345039973885 96.34538015989554 -100.0
v -30.300863124904943 83.11093885688213 -100.0
v -74.5182507822348 90.35337907345969 -100.0
v -98.61747003799702 71.72179639127056 -100.0
v -97.20488020348068 19.837730653771565 -100.0
v -84.22058684270078 -25.266176052810238 -100.0
v -70.77089127721314 -50.95504171959346 -200
v -56.687707781076114 -66.93247424753565 -200
v -26.184880533134557 -74.81394438038446 -200
v 25.527267141647453 -71.47634799661287 -200
v 61.83932346403419 -70.03489645324355 -200
v 69.92443195864756 -50.345591010226244 -200
v 80.23483082904163 -20.058707707260407 -200
v 64.15588233644048 20.048713230137654 -200
v 80.44223818897053 60.94108953709889 -200
v 57.44491046986641 77.9047415961202 -200
v 19.346193680865134 77.38477472346054 -200
v -26.375132846288174 72.34322152124756 -200
v -64.6031733010514 78.3313476275248 -200
v -72.09583378211252 52.433333659718194 -200
v -79.0557024531939 16.133816827182432 -200
v -80.497646385852 -24.149293915755596 -200
v 0 0 0
v 0 0 -200
usemtl Stone
f 1 18 2
f 1 17 18
f 2 19 3
f 2 18 19
f 3 20 4
f 3 19 20
f 4 21 5
f 4 20 21
f 5 22 6
f 5 21 22
f 6 23 7
f 6 22 23
f 7 24 8
f 7 23 24
f 8 25 9
f 8 24 25
f 9 26 10
f 9 25 26
f 10 27 11
f 10 26 27
f 11 28 12
f 11 27 28
f 12 29 13
f 12 28 29
f 13 30 14
f 13 29 30
f 14 31 15
f 14 30 31
f 15 32 16
f 15 31 32
f 16 17 1
f 16 32 17
f 17 34 18
f 17 33 34
f 18 35 19
f 18 34 35
f 19 36 20
f 19 35 36
f 20 37 21
f 20 36 37
f 21 38 22
f 21 37 38
f 22 39 23
f 22 38 39
f 23 40 24
f 23 39 40
f 24 41 25
f 24 40 41
f 25 42 26
f 25 41 42
f 26 43 27
f 26 42 43
f 27 44 28
f 27 43 44
f 28 45 29
f 28 44 45
f 29 46 30
f 29 45 46
f 30 47 31
f 30 46 47
f 31 48 32
f 31 47 48
f 32 33 17
f 32 48 33
f 33 50 34
f 33 49 50
f 34 51 35
f 34 50 51
f 35 52 36
f 35 51 52
f 36 53 37
f 36 52 53
f 37 54 38
f 37 53 54
f 38 55 39
f 38 54 55
f 39 56 40
f 39 55 56
f 40 57 41
f 40 56 57
f 41 58 42
f 41 57 58
f 42 59 43
f 42 58 59
f 43 60 44
f 43 59 60
f 44 61 45
f 44 60 61
f 45 62 46
f 45 61 62
f 46 63 47
f 46 62 63
f 47 64 48
f 47 63 64
f 48 49 33
f 48 64 49
usemtl Earth
f 65 1 2
f 65 2 3
f 65 3 4
f 65 4 5
f 65 5 6
f 65 6 7
f 65 7 8
f 65 8 9
f 65 9 10
f 65 10 11
f 65 11 12
f 65 12 13
f 65 13 14
f 65 14 15
f 65 15 16
f 65 16 1
usemtl Stone
f 66 50 49
f 66 51 50
f 66 52 51
f 66 53 52
f 66 54 53
f 66 55 54
f 66 56 55
f 66 57 56
f 66 58 57
f 66 59 58
f 66 60 59
f 66 61 60
f 66 62 61
f 66 63 62
f 66 64 63
f 66 49 64
