o WeatheredLimestone
v -50 -46 46
v -50 46 46
v -50 46 -46
v -50 -46 -46
f 1 2 3
f 1 3 4
v 50 -46 -46
v 50 46 -46
v 50 46 46
v 50 -46 46
f 5 6 7
f 5 7 8
v -46 -50 -46
v 46 -50 -46
v 46 -50 46
v -46 -50 46
f 9 10 11
f 9 11 12
v -46 50 46
v 46 50 46
v 46 50 -46
v -46 50 -46
f 13 14 15
f 13 15 16
v -46 46 -50
v 46 46 -50
v 46 -46 -50
v -46 -46 -50
f 17 18 19
f 17 19 20
v -46 -46 50
v 46 -46 50
v 46 46 50
v -46 46 50
f 21 22 23
f 21 23 24
v -50 -46 -46
v -46 -50 -46
v -46 -50 46
v -50 -46 46
f 25 26 27
f 25 27 28
v -50 46 46
v -46 50 46
v -46 50 -46
v -50 46 -46
f 29 30 31
f 29 31 32
v 50 -46 46
v 46 -50 46
v 46 -50 -46
v 50 -46 -46
f 33 34 35
f 33 35 36
v 50 46 -46
v 46 50 -46
v 46 50 46
v 50 46 46
f 37 38 39
f 37 39 40
v -50 46 -46
v -46 46 -50
v -46 -46 -50
v -50 -46 -46
f 41 42 43
f 41 43 44
v -50 -46 46
v -46 -46 50
v -46 46 50
v -50 46 46
f 45 46 47
f 45 47 48
v 50 -46 -46
v 46 -46 -50
v 46 46 -50
v 50 46 -46
f 49 50 51
f 49 51 52
v 50 46 46
v 46 46 50
v 46 -46 50
v 50 -46 46
f 53 54 55
f 53 55 56
v -46 -50 -46
v -46 -46 -50
v 46 -46 -50
v 46 -50 -46
f 57 58 59
f 57 59 60
v 46 -50 46
v 46 -46 50
v -46 -46 50
v -46 -50 46
f 61 62 63
f 61 63 64
v 46 50 -46
v 46 46 -50
v -46 46 -50
v -46 50 -46
f 65 66 67
f 65 67 68
v -46 50 46
v -46 46 50
v 46 46 50
v 46 50 46
f 69 70 71
f 69 71 72
v -46 -46 -50
v -46 -50 -46
v -50 -46 -46
f 73 74 75
v -50 -46 46
v -46 -50 46
v -46 -46 50
f 76 77 78
v -50 46 -46
v -46 50 -46
v -46 46 -50
f 79 80 81
v -46 46 50
v -46 50 46
v -50 46 46
f 82 83 84
v 50 -46 -46
v 46 -50 -46
v 46 -46 -50
f 85 86 87
v 46 -46 50
v 46 -50 46
v 50 -46 46
f 88 89 90
v 46 46 -50
v 46 50 -46
v 50 46 -46
f 91 92 93
v 50 46 46
v 46 50 46
v 46 46 50
f 94 95 96
